<?xml version="1.0" encoding="utf-8"?>
<!-- Generator: Adobe Illustrator 26.0.1, SVG Export Plug-In . SVG Version: 6.00 Build 0)  -->
<svg version="1.1" id="Layer_1" xmlns="http://www.w3.org/2000/svg" xmlns:xlink="http://www.w3.org/1999/xlink" x="0px" y="0px"
	 viewBox="0 0 512 512" style="enable-background:new 0 0 512 512;" xml:space="preserve">
<style type="text/css">
	.st0{fill:#5C667B;}
</style>
<g>
	<g>
		<path class="st0" d="M256,0C114.5,0,0,114.5,0,256s114.5,256,256,256s256-114.5,256-256S397.5,0,256,0z M256,476.3
			c-121.5,0-220.3-98.8-220.3-220.3S134.5,35.7,256,35.7S476.3,134.5,476.3,256S377.5,476.3,256,476.3z"/>
	</g>
</g>
<g>
	<g>
		<path class="st0" d="M248.4,323.9c-14.2,0-25.6,11.8-25.6,25.9c0,13.8,11.1,25.9,25.6,25.9s25.9-12.1,25.9-25.9
			C274.4,335.7,262.6,323.9,248.4,323.9z"/>
	</g>
</g>
<g>
	<g>
		<path class="st0" d="M252.8,127.5c-45.5,0-66.4,27-66.4,45.2c0,13.1,11.1,19.2,20.2,19.2c18.2,0,10.8-25.9,45.2-25.9
			c16.8,0,30.3,7.4,30.3,22.9c0,18.2-18.9,28.6-30,38.1c-9.8,8.4-22.6,22.2-22.6,51.2c0,17.5,4.7,22.6,18.5,22.6
			c16.5,0,19.9-7.4,19.9-13.8c0-17.5,0.3-27.6,18.9-42.1c9.1-7.1,37.7-30,37.7-61.7S295.9,127.5,252.8,127.5z"/>
	</g>
</g>
</svg>
